# xmcd
#
# Track frame offsets: 
#        150
#        39472
#        68944
#        103913
#        146297
#        168869
#        191891
#        206588
#
# Disc length: 2972 seconds
#
# Revision: 0
# Processed by: cddbd v1.5.2PL0 Copyright (c) Steve Scherf et al.
# Submitted via: ExactAudioCopy v0.99pb5
#
DISCID=720b9a08
DTITLE=Prazak-Quartett, Karl Leister - Mozart and Crusell Clarinet Quint
DTITLE=ets
DYEAR=1900
DGENRE=
TTITLE0=Mozart Klarinetquintette Kv 581 1
TTITLE1=Mozart Klarinetquintette Kv 581 2
TTITLE2=Mozart Klarinetquintette Kv 581 3
TTITLE3=Mozart Klarinetquintette Kv 581 4
TTITLE4=Crusell Klarinetquintette op. 4 1
TTITLE5=Crusell Klarinetquintette op. 4 2
TTITLE6=Crusell Klarinetquintette op. 4 3
TTITLE7=Crusell Klarinetquintette op. 4 1
EXTD=
EXTT0=
EXTT1=
EXTT2=
EXTT3=
EXTT4=
EXTT5=
EXTT6=
EXTT7=
PLAYORDER=
